<svg xmlns="http://www.w3.org/2000/svg" version="1.1" xmlns:xlink="http://www.w3.org/1999/xlink" xmlns:svgjs="http://svgjs.dev/svgjs" width="1920" height="5000" preserveAspectRatio="none" viewBox="0 0 1920 5000"><g mask="url(&quot;#SvgjsMask1031&quot;)" fill="none"><path d="M 770,-4708.755786218851 C 877.2,-4208.76 1323.4,-3208.76 1306,-2208.755786218851 C 1288.6,-1208.76 659.6,-708.76 683,291.244213781149 C 706.4,1291.24 1431.6,1849.49 1423,2791.244213781149 C 1414.4,3733 796.6,4558.25 640,5000" stroke="rgba(115, 241, 17, 0.37)" stroke-width="2"></path><path d="M 1021,-203.47245011701807 C 907.6,296.53 428.8,1296.53 454,2296.527549882982 C 479.2,3296.53 1153.8,3796.53 1147,4796.5275498829815 C 1140.2,5796.53 409,7255.83 420,7296.5275498829815 C 431,7337.22 1045.6,5459.31 1202,5000" stroke="rgba(115, 241, 17, 0.37)" stroke-width="2"></path><path d="M 1143,-1205.707317431942 C 1029.8,-705.71 598.6,294.29 577,1294.292682568058 C 555.4,2294.29 1054.8,2794.29 1035,3794.292682568058 C 1015.2,4794.29 401.8,6053.15 478,6294.292682568058 C 554.2,6535.43 1228.4,5258.86 1416,5000" stroke="rgba(58, 216, 235, 0.34)" stroke-width="2"></path><path d="M 1296,-3426.925405482707 C 1227.2,-2926.93 911.4,-1926.93 952,-926.925405482707 C 992.6,73.07 1595.2,573.07 1499,1573.074594517293 C 1402.8,2573.07 498,3387.69 471,4073.074594517293 C 444,4758.46 1185.4,4814.61 1364,5000" stroke="rgba(115, 241, 17, 0.37)" stroke-width="2"></path><path d="M 1038,-2016.0444888554862 C 948,-1516.04 521.6,-516.04 588,483.95551114451376 C 654.4,1483.96 1342.8,1983.96 1370,2983.955511144514 C 1397.2,3983.96 732.8,5080.75 724,5483.955511144513 C 715.2,5887.16 1205.6,5096.79 1326,5000" stroke="rgba(58, 216, 235, 0.34)" stroke-width="2"></path><path d="M 804,-3926.3236183613703 C 889,-3426.32 1245.4,-2426.32 1229,-1426.3236183613703 C 1212.6,-426.32 684.6,73.68 722,1073.6763816386297 C 759.4,2073.68 1466.8,2788.41 1416,3573.6763816386297 C 1365.2,4358.94 657.6,4714.74 468,5000" stroke="rgba(58, 216, 235, 0.34)" stroke-width="2"></path><path d="M 990,-4012.9540274908095 C 937.8,-3512.95 710.8,-2512.95 729,-1512.9540274908093 C 747.2,-512.95 1145.8,-12.95 1081,987.0459725091907 C 1016.2,1987.05 344.8,2684.46 405,3487.0459725091905 C 465.2,4289.64 1186.6,4697.41 1382,5000" stroke="rgba(58, 216, 235, 0.34)" stroke-width="2"></path><path d="M 422,-1952.7344414433373 C 588.2,-1452.73 1202.8,-452.73 1253,547.2655585566627 C 1303.2,1547.27 704.8,2047.27 673,3047.2655585566627 C 641.2,4047.27 1082.2,5156.72 1094,5547.265558556663 C 1105.8,5937.81 804.4,5109.45 732,5000" stroke="rgba(58, 216, 235, 0.34)" stroke-width="2"></path></g><defs><mask id="SvgjsMask1031"><rect width="1920" height="5000" fill="#ffffff"></rect></mask></defs></svg>