<svg xmlns="http://www.w3.org/2000/svg" version="1.1" xmlns:xlink="http://www.w3.org/1999/xlink" xmlns:svgjs="http://svgjs.dev/svgjs" width="1920" height="5000" preserveAspectRatio="none" viewBox="0 0 1920 5000"><g mask="url(&quot;#SvgjsMask1036&quot;)" fill="none"><path d="M 1489,-685.5490761613653 C 1313.6,-185.55 637.8,814.45 612,1814.4509238386347 C 586.2,2814.45 1362.6,3314.45 1360,4314.4509238386345 C 1357.4,5314.45 637,6677.34 599,6814.4509238386345 C 561,6951.56 1055.8,5362.89 1170,5000" stroke="rgba(100, 10, 171, 0.34)" stroke-width="2"></path><path d="M 1375,-4462.159407397422 C 1290.6,-3962.16 1025.4,-2962.16 953,-1962.159407397422 C 880.6,-962.16 1031.6,-462.16 1013,537.840592602578 C 994.4,1537.84 765.6,2145.41 860,3037.840592602578 C 954.4,3930.27 1360,4607.57 1485,5000" stroke="rgba(100, 10, 171, 0.34)" stroke-width="2"></path><path d="M 1408,-4944.64608667396 C 1280.4,-4444.65 778,-3444.65 770,-2444.6460866739603 C 762,-1444.65 1366.4,-944.65 1368,55.353913326039674 C 1369.6,1055.35 829.4,1566.42 778,2555.3539133260397 C 726.6,3544.28 1044.4,4511.07 1111,5000" stroke="rgba(255, 112, 51, 0.36)" stroke-width="2"></path><path d="M 1267,-827.1694514573014 C 1104.2,-327.17 425.8,672.83 453,1672.8305485426986 C 480.2,2672.83 1338.8,3172.83 1403,4172.830548542699 C 1467.2,5172.83 808.4,6507.4 774,6672.830548542699 C 739.6,6838.26 1139.6,5334.57 1231,5000" stroke="rgba(255, 112, 51, 0.36)" stroke-width="2"></path><path d="M 1249,-336.7942731490175 C 1170.6,163.21 822.6,1163.21 857,2163.2057268509825 C 891.4,3163.21 1441.8,3663.21 1421,4663.2057268509825 C 1400.2,5663.21 740.6,7095.85 753,7163.2057268509825 C 765.4,7230.56 1337,5432.64 1483,5000" stroke="rgba(255, 112, 51, 0.36)" stroke-width="2"></path><path d="M 974,-1818.9420262794265 C 869.6,-1318.94 415.2,-318.94 452,681.0579737205735 C 488.8,1681.06 1108.4,2181.06 1158,3181.0579737205735 C 1207.6,4181.06 713.2,5317.27 700,5681.0579737205735 C 686.8,6044.85 1013.6,5136.21 1092,5000" stroke="rgba(100, 10, 171, 0.34)" stroke-width="2"></path><path d="M 1517,-2688.4936094970744 C 1400.6,-2188.49 1004.6,-1188.49 935,-188.4936094970746 C 865.4,811.51 1205.4,1311.51 1169,2311.5063905029256 C 1132.6,3311.51 739.6,4273.81 753,4811.506390502926 C 766.4,5349.21 1139.4,4962.3 1236,5000" stroke="rgba(100, 10, 171, 0.34)" stroke-width="2"></path><path d="M 493,-1117.9266847319375 C 626.4,-617.93 1085.8,382.07 1160,1382.0733152680625 C 1234.2,2382.07 856.2,2882.07 864,3882.0733152680623 C 871.8,4882.07 1195.6,6158.49 1199,6382.073315268062 C 1202.4,6605.66 944.6,5276.41 881,5000" stroke="rgba(255, 112, 51, 0.36)" stroke-width="2"></path></g><defs><mask id="SvgjsMask1036"><rect width="1920" height="5000" fill="#ffffff"></rect></mask></defs></svg>